<svg width="293" height="71" viewBox="0 0 293 71" fill="none" xmlns="http://www.w3.org/2000/svg">
<path opacity="0.4" d="M19.4641 11L27.4641 25.5L24 27.5L16 13L19.4641 11Z" fill="url(#paint0_linear_211_694)"/>
<path opacity="0.4" d="M46 35L60 35V39H46L46 35Z" fill="url(#paint1_linear_211_694)"/>
<path opacity="0.4" d="M13.3773 57.8066L22.5318 46.9266L25.7546 49.2959L16.6138 60.0411L13.3773 57.8066Z" fill="url(#paint2_linear_211_694)"/>
<path fill-rule="evenodd" clip-rule="evenodd" d="M18 8L8.00007 22L8 22L8.00002 22L8 22.0001L8.00005 22.0001L15.5114 36.084L7.00007 48L7 48L7.00002 48L7 48.0001L7.00005 48.0001L15 63H32C33.1046 63 34 62.1046 34 61C34 59.8954 33.1046 59 32 59H17.3974L11.6952 48.3084L17.6127 40.0238L24 52H35H43H54L61.9999 37.0001L62 37.0001L62 37L62 37L61.9999 37L53.1719 24.6406C52.5262 23.7367 51.2676 23.5321 50.3689 24.1851C49.4804 24.8306 49.2787 26.0718 49.917 26.9655L57.3048 37.3084L51.6026 48H43H42.9692L49 36.0001L49 36L48.9999 35.9999L41 23H26L18.8572 33H18.3974L12.6952 22.3084L20.0583 12H35C36.1046 12 37 11.1046 37 10C37 8.89543 36.1046 8 35 8H18ZM37.4 48L32.0667 38H21.0641L26.3974 48H35H37.4ZM44.4347 36.1912L40.1644 44.6881L35.6149 36.1577L40.0612 29.0843L44.4347 36.1912ZM36.6574 27H28.0583L23.7726 33H32.8858L36.6574 27Z" fill="url(#paint3_linear_211_694)"/>
<path d="M92.264 46H89.736V44.336C89.3093 44.976 88.7013 45.456 87.912 45.776C87.1227 46.096 86.2587 46.2667 85.32 46.288C84.3813 46.3307 83.464 46.224 82.568 45.968C81.672 45.6907 80.9147 45.2747 80.296 44.72C79.656 44.1653 79.1547 43.4613 78.792 42.608C78.4507 41.7547 78.28 40.7733 78.28 39.664V30H80.84V39.664C80.84 41.136 81.256 42.2133 82.088 42.896C82.9413 43.5787 84.0293 43.92 85.352 43.92C86.0133 43.92 86.6747 43.7707 87.336 43.472C88.0187 43.1733 88.584 42.7147 89.032 42.096C89.5013 41.456 89.736 40.6453 89.736 39.664V30H92.264V46ZM109.491 46H106.963V36.496C106.963 35.472 106.739 34.6507 106.291 34.032C105.864 33.4133 105.31 32.976 104.627 32.72C103.966 32.4427 103.272 32.304 102.547 32.304C101.843 32.304 101.139 32.4533 100.435 32.752C99.7523 33.0507 99.1763 33.5093 98.707 34.128C98.2377 34.7467 98.003 35.536 98.003 36.496V46H95.475V30H98.003V31.728C98.4937 31.0667 99.1657 30.5867 100.019 30.288C100.872 29.968 101.758 29.808 102.675 29.808C103.912 29.808 105.043 30.064 106.067 30.576C107.112 31.088 107.944 31.8453 108.563 32.848C109.182 33.8293 109.491 35.0453 109.491 36.496V46ZM126.269 37.84C126.269 39.2907 126.045 40.6027 125.597 41.776C125.149 42.928 124.488 43.8773 123.613 44.624C122.739 45.3707 121.651 45.8187 120.349 45.968C119.283 46.1387 118.259 46.064 117.277 45.744C116.296 45.424 115.507 45.008 114.909 44.496V46H112.381V23.6H114.909V30.672C115.699 30.2667 116.435 30.0213 117.117 29.936C117.8 29.8507 118.44 29.808 119.037 29.808C120.573 29.808 121.875 30.16 122.941 30.864C124.029 31.5467 124.851 32.496 125.405 33.712C125.981 34.9067 126.269 36.2827 126.269 37.84ZM123.709 37.84C123.709 36.176 123.293 34.8853 122.461 33.968C121.651 33.0293 120.573 32.4853 119.229 32.336C117.885 32.1867 116.445 32.432 114.909 33.072V42.352C115.997 43.0987 117.064 43.536 118.109 43.664C119.155 43.792 120.093 43.6427 120.925 43.216C121.779 42.7893 122.451 42.128 122.941 41.232C123.453 40.3147 123.709 39.184 123.709 37.84ZM135.962 46.384C134.426 46.384 133.071 46.0533 131.898 45.392C130.746 44.7307 129.839 43.8027 129.178 42.608C128.538 41.392 128.218 39.9733 128.218 38.352C128.218 36.4747 128.559 34.9067 129.242 33.648C129.924 32.3893 130.842 31.44 131.994 30.8C133.167 30.16 134.49 29.84 135.962 29.84C137.476 29.84 138.81 30.16 139.962 30.8C141.135 31.44 142.052 32.3893 142.714 33.648C143.375 34.9067 143.706 36.4747 143.706 38.352C143.706 39.9733 143.375 41.392 142.714 42.608C142.052 43.8027 141.135 44.7307 139.962 45.392C138.81 46.0533 137.476 46.384 135.962 46.384ZM135.962 43.952C137.092 43.952 138.052 43.7067 138.842 43.216C139.631 42.704 140.228 42.0213 140.634 41.168C141.039 40.3147 141.242 39.376 141.242 38.352C141.242 36.6027 140.783 35.1627 139.866 34.032C138.97 32.88 137.668 32.304 135.962 32.304C134.234 32.304 132.922 32.88 132.026 34.032C131.13 35.184 130.682 36.624 130.682 38.352C130.682 39.3973 130.874 40.3467 131.258 41.2C131.663 42.032 132.26 42.704 133.05 43.216C133.839 43.7067 134.81 43.952 135.962 43.952ZM159.639 46H157.111V44.336C156.684 44.976 156.076 45.456 155.287 45.776C154.498 46.096 153.634 46.2667 152.695 46.288C151.756 46.3307 150.839 46.224 149.943 45.968C149.047 45.6907 148.29 45.2747 147.671 44.72C147.031 44.1653 146.53 43.4613 146.167 42.608C145.826 41.7547 145.655 40.7733 145.655 39.664V30H148.215V39.664C148.215 41.136 148.631 42.2133 149.463 42.896C150.316 43.5787 151.404 43.92 152.727 43.92C153.388 43.92 154.05 43.7707 154.711 43.472C155.394 43.1733 155.959 42.7147 156.407 42.096C156.876 41.456 157.111 40.6453 157.111 39.664V30H159.639V46ZM176.866 46H174.338V36.496C174.338 35.472 174.114 34.6507 173.666 34.032C173.239 33.4133 172.685 32.976 172.002 32.72C171.341 32.4427 170.647 32.304 169.922 32.304C169.218 32.304 168.514 32.4533 167.81 32.752C167.127 33.0507 166.551 33.5093 166.082 34.128C165.613 34.7467 165.378 35.536 165.378 36.496V46H162.85V30H165.378V31.728C165.869 31.0667 166.541 30.5867 167.394 30.288C168.247 29.968 169.133 29.808 170.05 29.808C171.287 29.808 172.418 30.064 173.442 30.576C174.487 31.088 175.319 31.8453 175.938 32.848C176.557 33.8293 176.866 35.0453 176.866 36.496V46ZM185.356 45.968C184.076 45.8187 182.988 45.3707 182.092 44.624C181.218 43.8773 180.556 42.928 180.108 41.776C179.66 40.6027 179.436 39.2907 179.436 37.84C179.436 36.2827 179.714 34.9067 180.268 33.712C180.844 32.496 181.666 31.5467 182.732 30.864C183.82 30.16 185.132 29.808 186.668 29.808C187.287 29.808 187.927 29.8507 188.588 29.936C189.271 30.0213 190.007 30.2667 190.796 30.672V23.6H193.324V46H190.796V44.496C190.199 45.008 189.41 45.424 188.428 45.744C187.447 46.064 186.423 46.1387 185.356 45.968ZM190.796 42.352V33.072C189.26 32.432 187.82 32.1867 186.476 32.336C185.154 32.4853 184.076 33.0293 183.244 33.968C182.412 34.8853 181.996 36.176 181.996 37.84C181.996 39.184 182.242 40.3147 182.732 41.232C183.244 42.128 183.927 42.7893 184.78 43.216C185.634 43.6427 186.572 43.792 187.596 43.664C188.642 43.536 189.708 43.0987 190.796 42.352ZM211.322 38.768H198.874C198.916 40.1547 199.29 41.2533 199.994 42.064C200.698 42.8747 201.594 43.408 202.682 43.664C203.77 43.92 204.932 43.8987 206.17 43.6C207.407 43.3013 208.58 42.736 209.69 41.904L211.034 43.888C209.988 44.6987 208.9 45.296 207.77 45.68C206.639 46.064 205.508 46.2667 204.378 46.288C201.711 46.352 199.674 45.616 198.266 44.08C196.858 42.5227 196.154 40.3573 196.154 37.584C196.154 35.216 196.815 33.328 198.138 31.92C199.482 30.512 201.423 29.8187 203.962 29.84C205.626 29.84 207.044 30.1813 208.218 30.864C209.391 31.5467 210.255 32.56 210.81 33.904C211.087 34.5653 211.258 35.3013 211.322 36.112C211.407 36.9227 211.407 37.808 211.322 38.768ZM204.09 32.208C202.639 32.208 201.402 32.592 200.378 33.36C199.375 34.1067 198.874 35.2267 198.874 36.72H209.05C209.05 35.312 208.602 34.2133 207.706 33.424C206.831 32.6133 205.626 32.208 204.09 32.208ZM220.106 45.968C218.826 45.8187 217.738 45.3707 216.842 44.624C215.968 43.8773 215.306 42.928 214.858 41.776C214.41 40.6027 214.186 39.2907 214.186 37.84C214.186 36.2827 214.464 34.9067 215.018 33.712C215.594 32.496 216.416 31.5467 217.482 30.864C218.57 30.16 219.882 29.808 221.418 29.808C222.037 29.808 222.677 29.8507 223.338 29.936C224.021 30.0213 224.757 30.2667 225.546 30.672V23.6H228.074V46H225.546V44.496C224.949 45.008 224.16 45.424 223.178 45.744C222.197 46.064 221.173 46.1387 220.106 45.968ZM225.546 42.352V33.072C224.01 32.432 222.57 32.1867 221.226 32.336C219.904 32.4853 218.826 33.0293 217.994 33.968C217.162 34.8853 216.746 36.176 216.746 37.84C216.746 39.184 216.992 40.3147 217.482 41.232C217.994 42.128 218.677 42.7893 219.53 43.216C220.384 43.6427 221.322 43.792 222.346 43.664C223.392 43.536 224.458 43.0987 225.546 42.352ZM231.672 46.16C231.224 46.1387 230.829 45.968 230.488 45.648C230.168 45.328 230.008 44.944 230.008 44.496C230.008 44.0267 230.168 43.632 230.488 43.312C230.829 42.992 231.224 42.832 231.672 42.832C232.12 42.832 232.504 42.992 232.824 43.312C233.144 43.632 233.314 44.0267 233.336 44.496C233.336 44.944 233.165 45.3387 232.824 45.68C232.504 46 232.12 46.16 231.672 46.16ZM242.138 45.968C240.858 45.8187 239.77 45.3707 238.874 44.624C237.999 43.8773 237.338 42.928 236.89 41.776C236.442 40.6027 236.218 39.2907 236.218 37.84C236.218 36.2827 236.495 34.9067 237.049 33.712C237.626 32.496 238.447 31.5467 239.514 30.864C240.602 30.16 241.914 29.808 243.45 29.808C244.068 29.808 244.708 29.8507 245.37 29.936C246.052 30.0213 246.788 30.2667 247.578 30.672V23.6H250.106V46H247.578V44.496C246.98 45.008 246.191 45.424 245.21 45.744C244.228 46.064 243.204 46.1387 242.138 45.968ZM247.578 42.352V33.072C246.042 32.432 244.602 32.1867 243.258 32.336C241.935 32.4853 240.858 33.0293 240.026 33.968C239.194 34.8853 238.778 36.176 238.778 37.84C238.778 39.184 239.023 40.3147 239.514 41.232C240.026 42.128 240.708 42.7893 241.562 43.216C242.415 43.6427 243.354 43.792 244.378 43.664C245.423 43.536 246.49 43.0987 247.578 42.352ZM258.247 46.16C256.753 46.1173 255.505 45.7013 254.503 44.912C253.5 44.1013 252.999 42.928 252.999 41.392C252.999 39.792 253.468 38.544 254.407 37.648C255.345 36.7307 256.625 36.144 258.247 35.888C259.868 35.632 261.681 35.6853 263.687 36.048V34.896C263.687 34.1493 263.452 33.5627 262.983 33.136C262.513 32.688 261.905 32.3893 261.159 32.24C260.433 32.0907 259.665 32.08 258.855 32.208C258.065 32.3147 257.319 32.56 256.615 32.944C255.911 33.3067 255.367 33.7867 254.983 34.384L253.415 32.72C254.076 31.9093 254.876 31.28 255.815 30.832C256.775 30.384 257.767 30.096 258.791 29.968C259.815 29.84 260.807 29.872 261.767 30.064C262.727 30.256 263.569 30.608 264.295 31.12C264.999 31.5467 265.479 32.1013 265.735 32.784C266.012 33.4453 266.172 34.2133 266.215 35.088C266.257 35.9627 266.279 36.9013 266.279 37.904V46H263.719V44.496C262.929 45.072 262.055 45.4987 261.095 45.776C260.135 46.0533 259.185 46.1813 258.247 46.16ZM263.655 42.224V38.032C261.116 37.712 259.1 37.7973 257.607 38.288C256.113 38.7787 255.367 39.8027 255.367 41.36C255.367 42.0427 255.559 42.576 255.943 42.96C256.348 43.344 256.86 43.6 257.479 43.728C258.119 43.856 258.812 43.8773 259.559 43.792C260.305 43.7067 261.041 43.5253 261.767 43.248C262.492 42.9707 263.121 42.6293 263.655 42.224ZM276.899 46.384C275.363 46.384 274.008 46.0533 272.835 45.392C271.683 44.7307 270.776 43.8027 270.115 42.608C269.475 41.392 269.155 39.9733 269.155 38.352C269.155 36.4747 269.496 34.9067 270.179 33.648C270.862 32.3893 271.779 31.44 272.931 30.8C274.104 30.16 275.427 29.84 276.899 29.84C278.414 29.84 279.747 30.16 280.899 30.8C282.072 31.44 282.99 32.3893 283.651 33.648C284.312 34.9067 284.643 36.4747 284.643 38.352C284.643 39.9733 284.312 41.392 283.651 42.608C282.99 43.8027 282.072 44.7307 280.899 45.392C279.747 46.0533 278.414 46.384 276.899 46.384ZM276.899 43.952C278.03 43.952 278.99 43.7067 279.779 43.216C280.568 42.704 281.166 42.0213 281.571 41.168C281.976 40.3147 282.179 39.376 282.179 38.352C282.179 36.6027 281.72 35.1627 280.803 34.032C279.907 32.88 278.606 32.304 276.899 32.304C275.171 32.304 273.859 32.88 272.963 34.032C272.067 35.184 271.619 36.624 271.619 38.352C271.619 39.3973 271.811 40.3467 272.195 41.2C272.6 42.032 273.198 42.704 273.987 43.216C274.776 43.7067 275.747 43.952 276.899 43.952Z" fill="#E8E8E8"/>
<defs>
<linearGradient id="paint0_linear_211_694" x1="25.8714" y1="26.4196" x2="12.1688" y2="2.68588" gradientUnits="userSpaceOnUse">
<stop stop-color="#0DCAF3"/>
<stop offset="1" stop-color="#3431CB"/>
</linearGradient>
<linearGradient id="paint1_linear_211_694" x1="60" y1="37" x2="36.8276" y2="37" gradientUnits="userSpaceOnUse">
<stop stop-color="#0DCAF3"/>
<stop offset="1" stop-color="#3431CB"/>
</linearGradient>
<linearGradient id="paint2_linear_211_694" x1="23.7682" y1="47.8355" x2="9.85742" y2="66.7567" gradientUnits="userSpaceOnUse">
<stop stop-color="#0DCAF3"/>
<stop offset="1" stop-color="#3431CB"/>
</linearGradient>
<linearGradient id="paint3_linear_211_694" x1="62" y1="35.5" x2="-29.0345" y2="35.5" gradientUnits="userSpaceOnUse">
<stop stop-color="#0DCAF3"/>
<stop offset="1" stop-color="#3431CB"/>
</linearGradient>
</defs>
</svg>
